<?xml version="1.0" encoding="UTF-8"?>
<svg width="18px" height="18px" viewBox="0 0 18 18" version="1.1" xmlns="http://www.w3.org/2000/svg" xmlns:xlink="http://www.w3.org/1999/xlink">
    <!-- Generator: Sketch 53.2 (72643) - https://sketchapp.com -->
    <title>合并形状</title>
    <desc>Created with Sketch.</desc>
    <g id="语音输入---还原成语音---K--ok" stroke="none" stroke-width="1" fill="none" fill-rule="evenodd">
        <g id="画板" transform="translate(-45.000000, -21.000000)" fill="#000000" fill-rule="nonzero">
            <path d="M46,21 L62,21 C62.5522847,21 63,21.4477153 63,22 L63,38 C63,38.5522847 62.5522847,39 62,39 L46,39 C45.4477153,39 45,38.5522847 45,38 L45,22 C45,21.4477153 45.4477153,21 46,21 Z M48,26 L48,34.12175 L54.02875,34.12175 L54.02875,33.063875 L49.239875,33.063875 L49.239875,30.48175 L53.562375,30.48175 L53.562375,29.423875 L49.239875,29.423875 L49.239875,27.057875 L53.835375,27.057875 L53.835375,26 L48,26 Z M58.157875,28.081625 C57.793875,28.081625 57.464,28.149875 57.16825,28.309125 C56.8725,28.457 56.610875,28.673125 56.383375,28.968875 L56.383375,28.240875 L55.177625,28.240875 L55.177625,34.12175 L56.383375,34.12175 L56.383375,30.584125 C56.428875,30.106375 56.5995,29.731 56.8725,29.458 C57.12275,29.20775 57.429875,29.094 57.771125,29.094 C58.681125,29.094 59.1475,29.5945 59.1475,30.5955 L59.1475,34.12175 L60.35325,34.12175 L60.35325,30.493125 C60.35325,28.877875 59.613875,28.081625 58.157875,28.081625 Z" id="合并形状"></path>
        </g>
    </g>
</svg>